# Rhino

mtllib grass.mtl
usemtl diffuse_0
v -47083.5859375 -2675.49609375 1371.0135498046875
v -47083.5859375 -2925.5458984375 1371.0135498046875
v -47083.5859375 -2675.49609375 -27488.27734375
v -47083.5859375 -2925.5458984375 -27488.27734375
v -20977.349609375 -2675.49609375 -41737.1015625
v -20977.349609375 -2925.5458984375 -41737.1015625
v 20482.48828125 -2675.49609375 -41737.1015625
v 20482.48828125 -2925.5458984375 -41737.1015625
v 46599.796875 -2675.49609375 -27580.0546875
v 46599.796875 -2925.5458984375 -27580.0546875
v 46599.796875 -2675.49609375 3061.735595703125
v 46599.796875 -2925.5458984375 3061.735595703125
v 42157.953125 -2675.49609375 11430.244140625
v 42157.953125 -2925.5458984375 11430.244140625
v 52020.3984375 -2675.49609375 16665.037109375
v 52020.3984375 -2925.5458984375 16665.037109375
v 47029.30078125 -2675.49609375 26160.9453125
v 47029.30078125 -2925.5458984375 26160.9453125
v 27690.6484375 -2675.49609375 40176.03515625
v 27690.6484375 -2925.5458984375 40176.03515625
v 21828.44140625 -2675.49609375 41561.74609375
v 21828.44140625 -2925.5458984375 41561.74609375
v 16382.1982421875 -2675.49609375 44891.328125
v 16382.1982421875 -2925.5458984375 44891.328125
v 6492.14404296875 -2675.49609375 54775.06640625
v 6492.14404296875 -2925.5458984375 54775.06640625
v 6948.51708984375 -2675.49609375 56312.0078125
v 6948.51708984375 -2925.5458984375 56312.0078125
v 10912.3037109375 -2675.49609375 59365.58984375
v 10912.3037109375 -2925.5458984375 59365.58984375
v -2312.239990234375 -2675.49609375 79028.4375
v -2312.239990234375 -2925.5458984375 79028.4375
v -8530.572265625 -2675.49609375 74846.203125
v -8530.572265625 -2925.5458984375 74846.203125
v -11519.13671875 -2675.49609375 73725.5078125
v -11519.13671875 -2925.5458984375 73725.5078125
v -14325.4970703125 -2675.49609375 74367.640625
v -14325.4970703125 -2925.5458984375 74367.640625
v -31691.107421875 -2675.49609375 82855.8828125
v -31691.107421875 -2925.5458984375 82855.8828125
v -53391.5390625 -2675.49609375 91799.671875
v -53391.5390625 -2925.5458984375 91799.671875
v -56440.29296875 -2675.49609375 84565.4453125
v -56440.29296875 -2925.5458984375 84565.4453125
v -40288.6640625 -2675.49609375 77758.59375
v -40288.6640625 -2925.5458984375 77758.59375
v -39402.51953125 -2675.49609375 75774.3984375
v -39402.51953125 -2925.5458984375 75774.3984375
v -37775.92578125 -2675.49609375 74814.9375
v -37775.92578125 -2925.5458984375 74814.9375
v -35180.34375 -2675.49609375 75620.46875
v -35180.34375 -2925.5458984375 75620.46875
v -20904.654296875 -2675.49609375 69579.03125
v -20904.654296875 -2925.5458984375 69579.03125
v -19383.107421875 -2675.49609375 68236.484375
v -19383.107421875 -2925.5458984375 68236.484375
v -17299.751953125 -2675.49609375 56402.75
v -17299.751953125 -2925.5458984375 56402.75
v -18594.87109375 -2675.49609375 55029.609375
v -18594.87109375 -2925.5458984375 55029.609375
v -17955.11328125 -2675.49609375 52064.87890625
v -17955.11328125 -2925.5458984375 52064.87890625
v -16506.611328125 -2675.49609375 51708.625
v -16506.611328125 -2925.5458984375 51708.625
v -14404.19140625 -2675.49609375 42392.73046875
v -14404.19140625 -2925.5458984375 42392.73046875
v -15129.1640625 -2675.49609375 41469.3984375
v -15129.1640625 -2925.5458984375 41469.3984375
v -18163.095703125 -2675.49609375 41469.3984375
v -18163.095703125 -2925.5458984375 41469.3984375
v -27570.578125 -2675.49609375 36115.6953125
v -27570.578125 -2925.5458984375 36115.6953125
vt 0 0
vt 0 0.50057542324066162
vt 0.02777777798473835 0
vt 0.02777777798473835 0.50057542324066162
vt 0.02777777798473835 0
vt 0.02777777798473835 0.50057542324066162
vt 0.0555555559694767 0
vt 0.0555555559694767 0.50057542324066162
vt 0.0555555559694767 0
vt 0.0555555559694767 0.50057542324066162
vt 0.083333335816860199 0
vt 0.083333335816860199 0.50057542324066162
vt 0.083333335816860199 0
vt 0.083333335816860199 0.50057542324066162
vt 0.1111111119389534 0
vt 0.1111111119389534 0.50057542324066162
vt 0.1111111119389534 0
vt 0.1111111119389534 0.50057542324066162
vt 0.1388888955116272 0
vt 0.1388888955116272 0.50057542324066162
vt 0.1388888955116272 0
vt 0.1388888955116272 0.50057542324066162
vt 0.1666666716337204 0
vt 0.1666666716337204 0.50057542324066162
vt 0.1666666716337204 0
vt 0.1666666716337204 0.50057542324066162
vt 0.1944444477558136 0
vt 0.1944444477558136 0.50057542324066162
vt 0.1944444477558136 0
vt 0.1944444477558136 0.50057542324066162
vt 0.2222222238779068 0
vt 0.2222222238779068 0.50057542324066162
vt 0.2222222238779068 0
vt 0.2222222238779068 0.50057542324066162
vt 0.25 0
vt 0.25 0.50057542324066162
vt 0.25 0
vt 0.25 0.50057542324066162
vt 0.27777779102325439 0
vt 0.27777779102325439 0.50057542324066162
vt 0.27777779102325439 0
vt 0.27777779102325439 0.50057542324066162
vt 0.3055555522441864 0
vt 0.3055555522441864 0.50057542324066162
vt 0.3055555522441864 0
vt 0.3055555522441864 0.50057542324066162
vt 0.3333333432674408 0
vt 0.3333333432674408 0.50057542324066162
vt 0.3333333432674408 0
vt 0.3333333432674408 0.50057542324066162
vt 0.3611111044883728 0
vt 0.3611111044883728 0.50057542324066162
vt 0.3611111044883728 0
vt 0.3611111044883728 0.50057542324066162
vt 0.3888888955116272 0
vt 0.3888888955116272 0.50057542324066162
vt 0.3888888955116272 0
vt 0.3888888955116272 0.50057542324066162
vt 0.4166666567325592 0
vt 0.4166666567325592 0.50057542324066162
vt 0.4166666567325592 0
vt 0.4166666567325592 0.50057542324066162
vt 0.4444444477558136 0
vt 0.4444444477558136 0.50057542324066162
vt 0.4444444477558136 0
vt 0.4444444477558136 0.50057542324066162
vt 0.47222220897674561 0
vt 0.47222220897674561 0.50057542324066162
vt 0.47222220897674561 0
vt 0.47222220897674561 0.50057542324066162
vt 0.5 0
vt 0.5 0.50057542324066162
vt 0.5 0
vt 0.5 0.50057542324066162
vt 0.52777779102325439 0
vt 0.52777779102325439 0.50057542324066162
vt 0.52777779102325439 0
vt 0.52777779102325439 0.50057542324066162
vt 0.55555558204650879 0
vt 0.55555558204650879 0.50057542324066162
vt 0.55555558204650879 0
vt 0.55555558204650879 0.50057542324066162
vt 0.58333331346511841 0
vt 0.58333331346511841 0.50057542324066162
vt 0.58333331346511841 0
vt 0.58333331346511841 0.50057542324066162
vt 0.6111111044883728 0
vt 0.6111111044883728 0.50057542324066162
vt 0.6111111044883728 0
vt 0.6111111044883728 0.50057542324066162
vt 0.6388888955116272 0
vt 0.6388888955116272 0.50057542324066162
vt 0.6388888955116272 0
vt 0.6388888955116272 0.50057542324066162
vt 0.66666668653488159 0
vt 0.66666668653488159 0.50057542324066162
vt 0.66666668653488159 0
vt 0.66666668653488159 0.50057542324066162
vt 0.69444441795349121 0
vt 0.69444441795349121 0.50057542324066162
vt 0.69444441795349121 0
vt 0.69444441795349121 0.50057542324066162
vt 0.72222220897674561 0
vt 0.72222220897674561 0.50057542324066162
vt 0.72222220897674561 0
vt 0.72222220897674561 0.50057542324066162
vt 0.75 0
vt 0.75 0.50057542324066162
vt 0.75 0
vt 0.75 0.50057542324066162
vt 0.77777779102325439 0
vt 0.77777779102325439 0.50057542324066162
vt 0.77777779102325439 0
vt 0.77777779102325439 0.50057542324066162
vt 0.80555558204650879 0
vt 0.80555558204650879 0.50057542324066162
vt 0.80555558204650879 0
vt 0.80555558204650879 0.50057542324066162
vt 0.83333331346511841 0
vt 0.83333331346511841 0.50057542324066162
vt 0.83333331346511841 0
vt 0.83333331346511841 0.50057542324066162
vt 0.8611111044883728 0
vt 0.8611111044883728 0.50057542324066162
vt 0.8611111044883728 0
vt 0.8611111044883728 0.50057542324066162
vt 0.8888888955116272 0
vt 0.8888888955116272 0.50057542324066162
vt 0.8888888955116272 0
vt 0.8888888955116272 0.50057542324066162
vt 0.91666668653488159 0
vt 0.91666668653488159 0.50057542324066162
vt 0.91666668653488159 0
vt 0.91666668653488159 0.50057542324066162
vt 0.94444441795349121 0
vt 0.94444441795349121 0.50057542324066162
vt 0.94444441795349121 0
vt 0.94444441795349121 0.50057542324066162
vt 0.97222220897674561 0
vt 0.97222220897674561 0.50057542324066162
vt 0.97222220897674561 0
vt 0.97222220897674561 0.50057542324066162
vt 1 0
vt 1 0.50057542324066162
vt 0.19604484736919403 0.95691561698913574
vt 0.25861036777496338 0.95691561698913574
vt 0.28950110077857971 0.83670538663864136
vt 0.28950110077857971 0.64579713344573975
vt 0.25880932807922363 0.5255359411239624
vt 0.19237944483757019 0.5255359411239624
vt 0.17423693835735321 0.54598909616470337
vt 0.16288815438747406 0.5005759596824646
vt 0.14230149984359741 0.52355819940567017
vt 0.11191748082637787 0.61260604858398438
vt 0.10891333222389221 0.6395995020866394
vt 0.10169496387243271 0.66467756032943726
vt 0.080267511308193207 0.71021783351898193
vt 0.076935499906539917 0.70811641216278076
vt 0.07031548023223877 0.68986451625823975
vt 0.027687404304742813 0.75075900554656982
vt 0.036754276603460312 0.7793923020362854
vt 0.039183888584375381 0.79315358400344849
vt 0.037791773676872253 0.80607593059539795
vt 0.019389685243368149 0.88603854179382324
vt 0 0.98596155643463135
vt 0.015683440491557121 1
vt 0.03044036403298378 0.92562735080718994
vt 0.034741993993520737 0.92154693603515625
vt 0.036822054535150528 0.91405701637268066
vt 0.03507571667432785 0.90210527181625366
vt 0.048173252493143082 0.83637064695358276
vt 0.051083814352750778 0.82936447858810425
vt 0.07673877477645874 0.81977128982543945
vt 0.07971566915512085 0.82573491334915161
vt 0.086143061518669128 0.82278901338577271
vt 0.086915396153926849 0.81611919403076172
vt 0.10711179673671722 0.80643826723098755
vt 0.10911353677511215 0.80977648496627808
vt 0.10911353677511215 0.82374674081802368
vt 0.12072010338306427 0.8670649528503418
vt 0.19604484736919403 0.54366034269332886
vt 0.25861036777496338 0.54366034269332886
vt 0.28950110077857971 0.66387057304382324
vt 0.28950110077857971 0.85477882623672485
vt 0.25880932807922363 0.9750400185585022
vt 0.19237944483757019 0.9750400185585022
vt 0.17423693835735321 0.95458686351776123
vt 0.16288815438747406 1
vt 0.14230149984359741 0.97701770067214966
vt 0.11191748082637787 0.88796991109848022
vt 0.10891333222389221 0.8609764575958252
vt 0.10169496387243271 0.83589839935302734
vt 0.080267511308193207 0.79035812616348267
vt 0.076935499906539917 0.79245954751968384
vt 0.07031548023223877 0.81071138381958008
vt 0.027687404304742813 0.74981695413589478
vt 0.036754276603460312 0.7211836576461792
vt 0.039183888584375381 0.70742237567901611
vt 0.037791773676872253 0.69450002908706665
vt 0.019389685243368149 0.61453741788864136
vt 0 0.51461440324783325
vt 0.015683440491557121 0.5005759596824646
vt 0.03044036403298378 0.57494860887527466
vt 0.034741993993520737 0.57902902364730835
vt 0.036822054535150528 0.58651888370513916
vt 0.03507571667432785 0.59847068786621094
vt 0.048173252493143082 0.66420531272888184
vt 0.051083814352750778 0.67121148109436035
vt 0.07673877477645874 0.68080461025238037
vt 0.07971566915512085 0.67484104633331299
vt 0.086143061518669128 0.67778694629669189
vt 0.086915396153926849 0.68445676565170288
vt 0.10711179673671722 0.69413769245147705
vt 0.10911353677511215 0.69079941511154175
vt 0.10911353677511215 0.67682921886444092
vt 0.12072010338306427 0.6335110068321228
vn -1 0 0
vn -1 0 0
vn -1 0 0
vn -1 0 0
vn -0.47908684611320496 0 -0.87776750326156616
vn -0.47908684611320496 0 -0.87776750326156616
vn -0.47908684611320496 0 -0.87776750326156616
vn -0.47908684611320496 0 -0.87776750326156616
vn 0 0 -1
vn 0 0 -1
vn 0 0 -1
vn 0 0 -1
vn 0.47654780745506287 0 -0.87914854288101196
vn 0.47654780745506287 0 -0.87914854288101196
vn 0.47654780745506287 0 -0.87914854288101196
vn 0.47654780745506287 0 -0.87914854288101196
vn 1 0 0
vn 1 0 0
vn 1 0 0
vn 1 0 0
vn 0.88328742980957031 0 0.46883189678192139
vn 0.88328742980957031 0 0.46883189678192139
vn 0.88328742980957031 0 0.46883189678192139
vn 0.88328742980957031 0 0.46883189678192139
vn 0.46883189678192139 0 -0.88328742980957031
vn 0.46883189678192139 0 -0.88328742980957031
vn 0.46883189678192139 0 -0.88328742980957031
vn 0.46883189678192139 0 -0.88328742980957031
vn 0.8851773738861084 0 0.46525368094444275
vn 0.8851773738861084 0 0.46525368094444275
vn 0.8851773738861084 0 0.46525368094444275
vn 0.8851773738861084 0 0.46525368094444275
vn 0.58681845664978027 0 0.80971848964691162
vn 0.58681845664978027 0 0.80971848964691162
vn 0.58681845664978027 0 0.80971848964691162
vn 0.58681845664978027 0 0.80971848964691162
vn 0.23004084825515747 0 0.97318094968795776
vn 0.23004084825515747 0 0.97318094968795776
vn 0.23004084825515747 0 0.97318094968795776
vn 0.23004084825515747 0 0.97318094968795776
vn 0.52160072326660156 0 0.85318970680236816
vn 0.52160072326660156 0 0.85318970680236816
vn 0.52160072326660156 0 0.85318970680236816
vn 0.52160072326660156 0 0.85318970680236816
vn 0.70688080787658691 0 0.70733267068862915
vn 0.70688080787658691 0 0.70733267068862915
vn 0.70688080787658691 0 0.70733267068862915
vn 0.70688080787658691 0 0.70733267068862915
vn 0.95863097906112671 0 -0.28465184569358826
vn 0.95863097906112671 0 -0.28465184569358826
vn 0.95863097906112671 0 -0.28465184569358826
vn 0.95863097906112671 0 -0.28465184569358826
vn 0.61027777194976807 0 -0.79218751192092896
vn 0.61027777194976807 0 -0.79218751192092896
vn 0.61027777194976807 0 -0.79218751192092896
vn 0.61027777194976807 0 -0.79218751192092896
vn 0.82978445291519165 0 0.55808401107788086
vn 0.82978445291519165 0 0.55808401107788086
vn 0.82978445291519165 0 0.55808401107788086
vn 0.82978445291519165 0 0.55808401107788086
vn -0.55808401107788086 0 0.82978445291519165
vn -0.55808401107788086 0 0.82978445291519165
vn -0.55808401107788086 0 0.82978445291519165
vn -0.55808401107788086 0 0.82978445291519165
vn -0.35111871361732483 0 0.93633097410202026
vn -0.35111871361732483 0 0.93633097410202026
vn -0.35111871361732483 0 0.93633097410202026
vn -0.35111871361732483 0 0.93633097410202026
vn 0.2230491042137146 0 0.97480720281600952
vn 0.2230491042137146 0 0.97480720281600952
vn 0.2230491042137146 0 0.97480720281600952
vn 0.2230491042137146 0 0.97480720281600952
vn 0.4391428530216217 0 0.89841723442077637
vn 0.4391428530216217 0 0.89841723442077637
vn 0.4391428530216217 0 0.89841723442077637
vn 0.4391428530216217 0 0.89841723442077637
vn 0.38105267286300659 0 0.92455333471298218
vn 0.38105267286300659 0 0.92455333471298218
vn 0.38105267286300659 0 0.92455333471298218
vn 0.38105267286300659 0 0.92455333471298218
vn -0.92150944471359253 0 0.38835600018501282
vn -0.92150944471359253 0 0.38835600018501282
vn -0.92150944471359253 0 0.38835600018501282
vn -0.92150944471359253 0 0.38835600018501282
vn -0.38835600018501282 0 -0.92150944471359253
vn -0.38835600018501282 0 -0.92150944471359253
vn -0.38835600018501282 0 -0.92150944471359253
vn -0.38835600018501282 0 -0.92150944471359253
vn -0.91307896375656128 0 -0.40778282284736633
vn -0.91307896375656128 0 -0.40778282284736633
vn -0.91307896375656128 0 -0.40778282284736633
vn -0.91307896375656128 0 -0.40778282284736633
vn -0.50805777311325073 0 -0.86132299900054932
vn -0.50805777311325073 0 -0.86132299900054932
vn -0.50805777311325073 0 -0.86132299900054932
vn -0.50805777311325073 0 -0.86132299900054932
vn 0.29639920592308044 0 -0.95506411790847778
vn 0.29639920592308044 0 -0.95506411790847778
vn 0.29639920592308044 0 -0.95506411790847778
vn 0.29639920592308044 0 -0.95506411790847778
vn -0.3897341787815094 0 -0.92092740535736084
vn -0.3897341787815094 0 -0.92092740535736084
vn -0.3897341787815094 0 -0.92092740535736084
vn -0.3897341787815094 0 -0.92092740535736084
vn -0.66162163019180298 0 -0.74983787536621094
vn -0.66162163019180298 0 -0.74983787536621094
vn -0.66162163019180298 0 -0.74983787536621094
vn -0.66162163019180298 0 -0.74983787536621094
vn -0.98485398292541504 0 -0.17338575422763824
vn -0.98485398292541504 0 -0.17338575422763824
vn -0.98485398292541504 0 -0.17338575422763824
vn -0.98485398292541504 0 -0.17338575422763824
vn -0.72747153043746948 0 0.68613791465759277
vn -0.72747153043746948 0 0.68613791465759277
vn -0.72747153043746948 0 0.68613791465759277
vn -0.72747153043746948 0 0.68613791465759277
vn -0.97750025987625122 0 -0.21093426644802094
vn -0.97750025987625122 0 -0.21093426644802094
vn -0.97750025987625122 0 -0.21093426644802094
vn -0.97750025987625122 0 -0.21093426644802094
vn -0.23882918059825897 0 -0.9710615873336792
vn -0.23882918059825897 0 -0.9710615873336792
vn -0.23882918059825897 0 -0.9710615873336792
vn -0.23882918059825897 0 -0.9710615873336792
vn -0.97546732425689697 0 -0.22014437615871429
vn -0.97546732425689697 0 -0.22014437615871429
vn -0.97546732425689697 0 -0.22014437615871429
vn -0.97546732425689697 0 -0.22014437615871429
vn -0.78652632236480713 0 0.61755675077438354
vn -0.78652632236480713 0 0.61755675077438354
vn -0.78652632236480713 0 0.61755675077438354
vn -0.78652632236480713 0 0.61755675077438354
vn 0 0 1
vn 0 0 1
vn 0 0 1
vn 0 0 1
vn -0.4946061372756958 0 0.86911725997924805
vn -0.4946061372756958 0 0.86911725997924805
vn -0.4946061372756958 0 0.86911725997924805
vn -0.4946061372756958 0 0.86911725997924805
vn -0.87190639972686768 0 0.48967257142066956
vn -0.87190639972686768 0 0.48967257142066956
vn -0.87190639972686768 0 0.48967257142066956
vn -0.87190639972686768 0 0.48967257142066956
vn 0 1 0
vn 0 1 0
vn 0 1 0
vn 0 1 0
vn 0 1 0
vn 0 1 0
vn 0 1 0
vn 0 1 0
vn 0 1 0
vn 0 1 0
vn 0 1 0
vn 0 1 0
vn 0 1 0
vn 0 1 0
vn 0 1 0
vn 0 1 0
vn 0 1 0
vn 0 1 0
vn 0 1 0
vn 0 1 0
vn 0 1 0
vn 0 1 0
vn 0 1 0
vn 0 1 0
vn 0 1 0
vn 0 1 0
vn 0 1 0
vn 0 1 0
vn 0 1 0
vn 0 1 0
vn 0 1 0
vn 0 1 0
vn 0 1 0
vn 0 1 0
vn 0 1 0
vn 0 1 0
vn 0 -1 0
vn 0 -1 0
vn 0 -1 0
vn 0 -1 0
vn 0 -1 0
vn 0 -1 0
vn 0 -1 0
vn 0 -1 0
vn 0 -1 0
vn 0 -1 0
vn 0 -1 0
vn 0 -1 0
vn 0 -1 0
vn 0 -1 0
vn 0 -1 0
vn 0 -1 0
vn 0 -1 0
vn 0 -1 0
vn 0 -1 0
vn 0 -1 0
vn 0 -1 0
vn 0 -1 0
vn 0 -1 0
vn 0 -1 0
vn 0 -1 0
vn 0 -1 0
vn 0 -1 0
vn 0 -1 0
vn 0 -1 0
vn 0 -1 0
vn 0 -1 0
vn 0 -1 0
vn 0 -1 0
vn 0 -1 0
vn 0 -1 0
vn 0 -1 0
f 1/1/1 3/3/3 4/4/4 2/2/2
f 3/5/5 5/7/7 6/8/8 4/6/6
f 5/9/9 7/11/11 8/12/12 6/10/10
f 7/13/13 9/15/15 10/16/16 8/14/14
f 9/17/17 11/19/19 12/20/20 10/18/18
f 11/21/21 13/23/23 14/24/24 12/22/22
f 13/25/25 15/27/27 16/28/28 14/26/26
f 15/29/29 17/31/31 18/32/32 16/30/30
f 17/33/33 19/35/35 20/36/36 18/34/34
f 19/37/37 21/39/39 22/40/40 20/38/38
f 21/41/41 23/43/43 24/44/44 22/42/42
f 23/45/45 25/47/47 26/48/48 24/46/46
f 25/49/49 27/51/51 28/52/52 26/50/50
f 27/53/53 29/55/55 30/56/56 28/54/54
f 29/57/57 31/59/59 32/60/60 30/58/58
f 31/61/61 33/63/63 34/64/64 32/62/62
f 33/65/65 35/67/67 36/68/68 34/66/66
f 35/69/69 37/71/71 38/72/72 36/70/70
f 37/73/73 39/75/75 40/76/76 38/74/74
f 39/77/77 41/79/79 42/80/80 40/78/78
f 41/81/81 43/83/83 44/84/84 42/82/82
f 43/85/85 45/87/87 46/88/88 44/86/86
f 45/89/89 47/91/91 48/92/92 46/90/90
f 47/93/93 49/95/95 50/96/96 48/94/94
f 49/97/97 51/99/99 52/100/100 50/98/98
f 51/101/101 53/103/103 54/104/104 52/102/102
f 53/105/105 55/107/107 56/108/108 54/106/106
f 55/109/109 57/111/111 58/112/112 56/110/110
f 57/113/113 59/115/115 60/116/116 58/114/114
f 59/117/117 61/119/119 62/120/120 60/118/118
f 61/121/121 63/123/123 64/124/124 62/122/122
f 63/125/125 65/127/127 66/128/128 64/126/126
f 65/129/129 67/131/131 68/132/132 66/130/130
f 67/133/133 69/135/135 70/136/136 68/134/134
f 69/137/137 71/139/139 72/140/140 70/138/138
f 71/141/141 1/143/143 2/144/144 72/142/142
f 1/145/145 5/147/147 3/146/146
f 1/145/145 71/180/180 67/178/178
f 69/179/179 67/178/178 71/180/180
f 59/174/174 63/176/176 61/175/175
f 57/173/173 63/176/176 59/174/174
f 57/173/173 25/157/157 63/176/176
f 1/145/145 67/178/178 5/147/147
f 51/170/170 47/168/168 45/167/167
f 45/167/167 43/166/166 41/165/165
f 41/165/165 39/164/164 45/167/167
f 37/163/163 53/171/171 39/164/164
f 45/167/167 39/164/164 51/170/170
f 53/171/171 51/170/170 39/164/164
f 49/169/169 47/168/168 51/170/170
f 37/163/163 55/172/172 53/171/171
f 55/172/172 35/162/162 57/173/173
f 19/154/154 13/151/151 21/155/155
f 5/147/147 67/178/178 13/151/151
f 23/156/156 21/155/155 67/178/178
f 67/178/178 21/155/155 13/151/151
f 7/148/148 5/147/147 13/151/151
f 7/148/148 13/151/151 11/150/150
f 17/153/153 15/152/152 13/151/151
f 19/154/154 17/153/153 13/151/151
f 9/149/149 7/148/148 11/150/150
f 55/172/172 37/163/163 35/162/162
f 33/161/161 57/173/173 35/162/162
f 57/173/173 27/158/158 25/157/157
f 63/176/176 25/157/157 65/177/177
f 65/177/177 25/157/157 23/156/156
f 29/159/159 27/158/158 31/160/160
f 27/158/158 33/161/161 31/160/160
f 33/161/161 27/158/158 57/173/173
f 23/156/156 67/178/178 65/177/177
f 2/181/181 4/182/182 6/183/183
f 2/181/181 68/214/214 72/216/216
f 70/215/215 72/216/216 68/214/214
f 60/210/210 62/211/211 64/212/212
f 58/209/209 60/210/210 64/212/212
f 58/209/209 64/212/212 26/193/193
f 2/181/181 6/183/183 68/214/214
f 52/206/206 46/203/203 48/204/204
f 46/203/203 42/201/201 44/202/202
f 42/201/201 46/203/203 40/200/200
f 38/199/199 40/200/200 54/207/207
f 46/203/203 52/206/206 40/200/200
f 54/207/207 40/200/200 52/206/206
f 50/205/205 52/206/206 48/204/204
f 38/199/199 54/207/207 56/208/208
f 56/208/208 58/209/209 36/198/198
f 20/190/190 22/191/191 14/187/187
f 6/183/183 14/187/187 68/214/214
f 24/192/192 68/214/214 22/191/191
f 68/214/214 14/187/187 22/191/191
f 8/184/184 14/187/187 6/183/183
f 8/184/184 12/186/186 14/187/187
f 18/189/189 14/187/187 16/188/188
f 20/190/190 14/187/187 18/189/189
f 10/185/185 12/186/186 8/184/184
f 56/208/208 36/198/198 38/199/199
f 34/197/197 36/198/198 58/209/209
f 58/209/209 26/193/193 28/194/194
f 64/212/212 66/213/213 26/193/193
f 66/213/213 24/192/192 26/193/193
f 30/195/195 32/196/196 28/194/194
f 28/194/194 32/196/196 34/197/197
f 34/197/197 58/209/209 28/194/194
f 24/192/192 66/213/213 68/214/214
