{
	"asset":{
		"generator":"Khronos glTF Blender I/O v4.3.47",
		"version":"2.0"
	},
	"scene":0,
	"scenes":[
		{
			"name":"Scene",
			"nodes":[
				0
			]
		}
	],
	"nodes":[
		{
			"mesh":0,
			"name":"PSYCHE_20170116_DEC",
			"rotation":[
				0.7071068286895752,
				0,
				0,
				0.7071068286895752
			]
		}
	],
	"meshes":[
		{
			"name":"PSYCHE_20170116_DEC",
			"primitives":[
				{
					"attributes":{
						"POSITION":0,
						"NORMAL":1
					},
					"indices":2
				}
			]
		}
	],
	"accessors":[
		{
			"bufferView":0,
			"componentType":5126,
			"count":9502,
			"max":[
				2.9957499504089355,
				2.1216931343078613,
				-0.008416157215833664
			],
			"min":[
				0.014705796726047993,
				0.9985344409942627,
				-2.5743696689605713
			],
			"type":"VEC3"
		},
		{
			"bufferView":1,
			"componentType":5126,
			"count":9502,
			"type":"VEC3"
		},
		{
			"bufferView":2,
			"componentType":5123,
			"count":10086,
			"type":"SCALAR"
		}
	],
	"bufferViews":[
		{
			"buffer":0,
			"byteLength":114024,
			"byteOffset":0,
			"target":34962
		},
		{
			"buffer":0,
			"byteLength":114024,
			"byteOffset":114024,
			"target":34962
		},
		{
			"buffer":0,
			"byteLength":20172,
			"byteOffset":228048,
			"target":34963
		}
	],
	"buffers":[
		{
			"byteLength":248220,
			"uri":"AsteroidScliced.bin"
		}
	]
}
