{
	"asset":{
		"generator":"Khronos glTF Blender I/O v4.3.47",
		"version":"2.0"
	},
	"scene":0,
	"scenes":[
		{
			"name":"Scene",
			"nodes":[
				0
			]
		}
	],
	"nodes":[
		{
			"mesh":0,
			"name":"PSYCHE_20170116_DEC",
			"rotation":[
				0.70710688829422,
				0,
				0,
				0.7071066498756409
			]
		}
	],
	"meshes":[
		{
			"name":"PSYCHE_20170116_DEC",
			"primitives":[
				{
					"attributes":{
						"POSITION":0,
						"NORMAL":1
					},
					"indices":2
				}
			]
		}
	],
	"accessors":[
		{
			"bufferView":0,
			"componentType":5126,
			"count":1842,
			"max":[
				2.9957499504089355,
				1.1294792890548706,
				-0.020862290635704994
			],
			"min":[
				0.014705796726047993,
				0.9985344409942627,
				-2.571645975112915
			],
			"type":"VEC3"
		},
		{
			"bufferView":1,
			"componentType":5126,
			"count":1842,
			"type":"VEC3"
		},
		{
			"bufferView":2,
			"componentType":5123,
			"count":2529,
			"type":"SCALAR"
		}
	],
	"bufferViews":[
		{
			"buffer":0,
			"byteLength":22104,
			"byteOffset":0,
			"target":34962
		},
		{
			"buffer":0,
			"byteLength":22104,
			"byteOffset":22104,
			"target":34962
		},
		{
			"buffer":0,
			"byteLength":5058,
			"byteOffset":44208,
			"target":34963
		}
	],
	"buffers":[
		{
			"byteLength":49268,
			"uri":"AsteroidSlicedv2.bin"
		}
	]
}
