{
	"asset":{
		"generator":"Khronos glTF Blender I/O v4.3.47",
		"version":"2.0"
	},
	"scene":0,
	"scenes":[
		{
			"name":"Scene",
			"nodes":[
				0
			]
		}
	],
	"nodes":[
		{
			"mesh":0,
			"name":"PSYCHE_20170116_DEC",
			"rotation":[
				0.7071068286895752,
				0,
				0,
				0.7071068286895752
			]
		}
	],
	"meshes":[
		{
			"name":"PSYCHE_20170116_DEC",
			"primitives":[
				{
					"attributes":{
						"POSITION":0,
						"NORMAL":1
					},
					"indices":2
				}
			]
		}
	],
	"accessors":[
		{
			"bufferView":0,
			"componentType":5126,
			"count":1015682,
			"max":[
				2.999985933303833,
				2.122178077697754,
				0
			],
			"min":[
				0,
				0,
				-2.576751947402954
			],
			"type":"VEC3"
		},
		{
			"bufferView":1,
			"componentType":5126,
			"count":1015682,
			"type":"VEC3"
		},
		{
			"bufferView":2,
			"componentType":5125,
			"count":1015734,
			"type":"SCALAR"
		}
	],
	"bufferViews":[
		{
			"buffer":0,
			"byteLength":12188184,
			"byteOffset":0,
			"target":34962
		},
		{
			"buffer":0,
			"byteLength":12188184,
			"byteOffset":12188184,
			"target":34962
		},
		{
			"buffer":0,
			"byteLength":4062936,
			"byteOffset":24376368,
			"target":34963
		}
	],
	"buffers":[
		{
			"byteLength":28439304,
			"uri":"Asteroid.bin"
		}
	]
}
